<?xml version="1.0" standalone="no"?>
<!DOCTYPE svg PUBLIC "-//W3C//DTD SVG 20010904//EN"
 "http://www.w3.org/TR/2001/REC-SVG-20010904/DTD/svg10.dtd">
<svg version="1.0" xmlns="http://www.w3.org/2000/svg"
 width="500.000000pt" height="500.000000pt" viewBox="0 0 500.000000 500.000000"
 preserveAspectRatio="xMidYMid meet">
<metadata>
Created by potrace 1.11, written by Peter Selinger 2001-2013
</metadata>
<g transform="translate(0.000000,500.000000) scale(0.100000,-0.100000)"
fill="#000000" stroke="none">
<path d="M2390 4939 c-58 -34 -121 -70 -140 -81 -19 -11 -64 -37 -100 -58 -63
-37 -91 -52 -195 -112 -27 -16 -57 -33 -65 -38 -8 -5 -53 -32 -100 -58 -47
-27 -231 -134 -410 -237 -330 -191 -349 -202 -455 -262 -33 -19 -76 -43 -95
-55 -19 -11 -123 -71 -230 -133 -107 -62 -212 -122 -232 -134 l-37 -22 2
-1251 2 -1250 509 -294 c280 -162 511 -294 513 -294 1 0 26 -15 55 -33 29 -19
78 -47 108 -64 30 -17 142 -80 248 -142 106 -61 207 -120 225 -130 17 -10 129
-74 247 -143 118 -69 225 -130 238 -137 25 -13 -5 -29 667 359 127 74 286 166
355 205 117 68 544 314 975 562 l190 110 1 1251 2 1252 -102 59 c-55 32 -117
68 -136 79 -19 11 -118 68 -220 127 -101 58 -202 117 -225 129 -22 13 -107 62
-188 110 -82 47 -150 86 -152 86 -1 0 -44 25 -94 55 -51 30 -94 55 -97 55 -2
0 -21 11 -42 23 -54 34 -891 517 -905 523 -7 2 -59 -23 -117 -57z m1007 -912
l872 -502 -2 -1024 -2 -1024 -710 -410 c-390 -225 -788 -455 -882 -510 l-173
-100 -268 154 c-147 85 -545 314 -884 509 l-617 355 0 1025 0 1025 882 508
c529 304 888 505 897 502 8 -4 407 -232 887 -508z"/>
<path d="M3335 3594 c-273 -42 -481 -146 -721 -362 -87 -78 -248 -246 -325
-338 -14 -18 -34 -34 -45 -37 -10 -3 -133 -11 -273 -17 -140 -6 -264 -15 -276
-20 -25 -10 -355 -569 -355 -603 0 -11 25 -46 60 -80 50 -50 63 -59 87 -55 15
3 109 31 208 62 99 31 185 56 190 56 16 0 405 -394 405 -410 0 -8 -13 -58 -29
-110 -16 -52 -43 -140 -60 -195 -17 -55 -31 -104 -31 -108 0 -5 25 -35 57 -68
41 -43 63 -59 83 -59 32 0 596 325 606 349 3 9 10 99 15 201 4 102 11 226 15
277 l7 92 81 68 c133 113 297 282 382 396 186 247 271 488 289 819 6 97 5 131
-5 143 -16 20 -235 19 -365 -1z m-19 -329 c114 -75 62 -249 -75 -249 -81 0
-131 52 -131 136 0 109 116 172 206 113z"/>
</g>
</svg>
